<?xml version="1.0" standalone="no"?>
<!DOCTYPE svg PUBLIC "-//W3C//DTD SVG 20010904//EN"
 "http://www.w3.org/TR/2001/REC-SVG-20010904/DTD/svg10.dtd">
<svg version="1.0" xmlns="http://www.w3.org/2000/svg"
 width="828.000000pt" height="828.000000pt" viewBox="0 0 828.000000 828.000000"
 preserveAspectRatio="xMidYMid meet">
<metadata>
Created by potrace 1.14, written by Peter Selinger 2001-2017
</metadata>
<g transform="translate(0.000000,828.000000) scale(0.100000,-0.100000)"
fill="#000000" stroke="none">
<path d="M5695 7380 l-60 -5 -2 -75 c-2 -96 -13 -262 -19 -303 -3 -18 -7 -48
-10 -67 -2 -19 -6 -46 -9 -60 -2 -14 -7 -38 -11 -55 -3 -16 -13 -45 -21 -64
-13 -28 -13 -35 -2 -42 11 -7 12 -12 2 -28 -6 -10 -9 -28 -6 -39 3 -15 -2 -24
-23 -34 -16 -7 -31 -25 -35 -42 -4 -15 -16 -37 -25 -47 -9 -11 -15 -21 -12
-24 9 -9 57 20 62 37 2 10 9 18 15 18 14 0 10 -41 -5 -57 -6 -7 -10 -25 -8
-40 2 -22 -2 -31 -19 -38 -26 -12 -25 -30 3 -30 31 -1 56 -31 41 -48 -19 -23
-7 -86 20 -105 38 -26 58 -50 65 -76 3 -13 14 -26 24 -29 24 -6 33 -96 11
-105 -8 -3 -16 -1 -18 4 -4 12 -65 6 -73 -7 -3 -4 -20 -11 -39 -14 -18 -3 -42
-12 -54 -20 -14 -9 -27 -11 -37 -5 -9 5 -19 5 -27 -2 -10 -8 -13 -6 -13 5 0
32 -24 30 -51 -3 -16 -18 -26 -37 -23 -42 10 -16 -7 -30 -22 -17 -11 9 -19 8
-34 -6 -11 -10 -20 -22 -20 -27 0 -5 -8 -20 -17 -34 -16 -25 -17 -25 -30 -8
-13 18 -14 18 -19 -4 -4 -12 -9 -22 -13 -22 -6 0 -41 -53 -41 -63 0 -8 32 -18
85 -27 28 -5 76 -15 108 -23 41 -11 57 -12 57 -4 0 8 3 9 8 2 4 -6 36 -25 72
-43 36 -18 79 -40 95 -49 17 -8 46 -24 65 -33 47 -24 52 -56 11 -65 -17 -3
-35 -4 -41 0 -33 20 -208 -71 -282 -147 -26 -26 -56 -48 -67 -48 -11 0 -53
-22 -93 -50 -40 -27 -77 -50 -83 -50 -6 0 -16 -5 -22 -11 -6 -6 -30 -13 -53
-14 -23 -2 -50 -11 -59 -19 -10 -9 -22 -16 -28 -16 -19 0 -137 -52 -161 -71
-14 -10 -33 -19 -43 -19 -9 0 -24 -7 -32 -14 -9 -9 -56 -20 -122 -27 -69 -8
-109 -17 -112 -26 -3 -7 -13 -13 -23 -13 -10 0 -20 -7 -23 -15 -4 -8 -25 -26
-48 -41 l-42 -26 -20 21 c-17 17 -18 22 -7 36 7 8 20 13 30 10 9 -3 25 4 39
18 19 21 20 25 6 37 -8 7 -15 19 -15 26 0 17 -22 18 -38 2 -6 -6 -15 -9 -18
-5 -4 4 7 21 25 39 34 35 37 48 19 66 -9 9 -7 12 9 12 11 0 26 -7 33 -15 10
-12 9 -15 -6 -16 -14 -1 -12 -3 6 -8 l24 -7 -21 -21 -21 -21 26 -24 c14 -12
22 -17 18 -10 -5 8 -1 19 10 27 22 16 35 10 27 -11 -4 -12 -1 -15 13 -12 10 2
19 10 19 18 0 8 6 20 14 26 16 12 -1 30 -19 19 -5 -3 -10 1 -10 10 0 11 -5 15
-14 12 -8 -3 -19 0 -24 6 -11 12 -12 17 -12 42 0 27 -37 37 -71 20 -17 -9 -37
-14 -45 -11 -9 4 -19 -4 -26 -22 -7 -15 -20 -37 -31 -49 -21 -24 -19 -58 3
-58 10 0 14 -8 12 -23 -2 -16 2 -22 17 -22 30 0 34 -17 9 -34 -16 -11 -25 -13
-35 -5 -7 6 -10 15 -7 20 3 5 -7 9 -21 9 -21 0 -25 -4 -20 -19 3 -10 -1 -23
-9 -30 -12 -10 -19 -9 -37 8 -13 12 -24 27 -25 35 -1 7 -5 23 -9 35 -3 11 -3
21 0 21 11 0 35 -28 35 -41 0 -7 8 -5 21 7 16 14 20 27 16 51 -3 18 -1 35 4
38 21 13 7 25 -30 25 -30 0 -40 -4 -44 -20 -3 -12 -14 -20 -26 -20 -12 0 -21
-4 -21 -9 0 -5 -10 -11 -23 -15 -16 -4 -28 -18 -37 -45 -10 -31 -19 -41 -41
-46 -39 -9 -53 -28 -39 -55 15 -28 5 -38 -22 -21 -17 11 -22 11 -29 0 -4 -8
-11 -10 -15 -6 -8 7 38 99 66 132 9 11 31 41 49 68 18 26 72 92 122 147 49 55
89 104 89 108 0 11 71 84 102 104 16 10 28 30 32 51 7 39 74 106 86 87 10 -16
47 24 66 68 13 29 13 35 -1 48 -12 13 -13 18 -2 28 10 11 14 47 8 75 -1 2 -7
-2 -15 -8 -16 -14 -61 4 -86 34 -15 18 -15 17 25 38 17 9 23 16 14 17 -8 0
-24 -7 -35 -15 -25 -19 -54 -19 -54 0 0 17 -26 20 -36 4 -12 -20 -66 0 -106
40 -22 22 -34 42 -29 46 14 8 53 -14 46 -26 -4 -5 1 -9 9 -9 8 0 18 9 21 20 3
11 11 20 16 20 6 0 9 10 7 23 -4 22 -9 24 -40 12 -14 -6 -18 -2 -18 18 0 28
-18 46 -29 29 -4 -7 -22 -11 -41 -11 -19 1 -39 0 -45 -1 -33 -8 -93 28 -81 49
4 5 -3 7 -16 3 -20 -5 -21 -3 -10 10 12 15 5 16 -70 12 -95 -6 -137 -17 -190
-51 -21 -12 -47 -23 -58 -23 -11 0 -59 -32 -108 -71 -90 -73 -127 -110 -143
-144 -5 -11 -13 -27 -17 -35 -25 -43 -32 -62 -32 -80 0 -11 -11 -43 -25 -72
-13 -29 -26 -63 -28 -76 -5 -31 -23 -48 -39 -35 -25 20 -113 42 -235 58 -128
18 -286 21 -663 13 -177 -4 -232 -2 -258 9 -18 8 -57 15 -85 17 -69 4 -160 40
-223 88 -52 39 -95 49 -117 26 -14 -14 -15 -63 -2 -91 4 -10 3 -27 -2 -39 -5
-11 -6 -52 -2 -92 4 -39 10 -102 13 -141 6 -89 20 -150 37 -171 14 -17 35 -69
48 -119 4 -16 18 -52 31 -80 38 -83 69 -176 64 -190 -3 -7 -1 -16 5 -20 6 -3
11 -22 11 -40 0 -35 28 -105 41 -105 4 0 7 -8 6 -18 0 -10 14 -39 32 -64 28
-40 38 -46 68 -46 20 0 39 -5 42 -11 5 -8 13 -7 27 4 16 12 17 14 2 15 -11 0
-15 6 -11 18 4 16 11 18 49 12 52 -8 53 -9 56 -41 4 -29 22 -38 67 -33 19 2
40 -1 47 -7 8 -7 14 -7 19 1 8 13 76 42 83 35 3 -3 7 -15 8 -27 8 -55 12 -63
30 -63 10 0 25 13 34 29 8 17 25 40 37 52 13 12 23 26 23 33 0 6 4 11 9 11 5
0 12 15 15 33 6 33 64 107 84 107 7 0 12 11 12 24 0 17 7 27 23 32 30 9 76 55
77 77 0 10 13 25 29 34 16 9 37 29 47 44 10 16 29 33 41 40 13 7 25 20 28 30
3 9 18 22 33 28 31 14 92 66 92 80 0 10 65 51 81 51 5 0 27 11 48 24 38 24 39
24 74 8 32 -15 36 -22 41 -67 5 -47 7 -67 6 -97 0 -52 9 -108 23 -135 9 -17
14 -39 11 -47 -8 -22 12 -20 26 2 11 16 11 16 6 -1 -3 -10 -6 -21 -6 -23 0 -2
-7 -4 -15 -4 -19 0 -20 -29 0 -36 7 -3 22 -27 31 -52 10 -26 20 -51 24 -57 4
-5 5 -23 4 -39 -2 -16 6 -52 17 -80 10 -28 19 -58 19 -68 0 -9 12 -39 27 -68
20 -39 31 -50 45 -47 26 7 31 -9 14 -44 -13 -26 -13 -29 -1 -19 8 7 15 18 15
24 0 6 19 27 42 46 23 19 75 68 115 108 41 39 78 72 84 72 15 0 89 71 89 85 0
6 10 21 23 33 12 12 30 30 40 40 9 10 35 25 57 32 22 7 40 16 40 19 0 3 7 15
15 25 12 15 17 17 29 7 13 -11 13 -15 -4 -33 -19 -21 -19 -21 1 -49 11 -16 24
-29 27 -29 12 0 56 32 65 47 4 7 14 13 22 13 9 0 12 8 9 24 -7 38 22 40 45 3
11 -18 16 -34 10 -37 -14 -9 -7 -61 8 -56 7 3 34 -6 60 -20 44 -23 49 -24 79
-9 43 20 51 35 20 35 -14 0 -26 4 -26 10 0 5 -11 12 -25 16 -14 3 -22 10 -19
15 3 5 -5 9 -18 9 l-22 0 22 22 c22 22 22 22 57 4 24 -13 35 -26 35 -41 0 -16
11 -28 36 -40 22 -10 39 -13 43 -7 9 14 70 20 75 8 2 -7 8 -7 17 2 7 6 26 12
42 12 25 0 28 2 17 15 -17 20 -5 31 42 39 38 7 38 7 32 -24 -4 -20 -3 -30 5
-30 14 0 41 24 41 36 0 4 8 16 17 26 9 10 17 28 18 41 1 18 8 22 33 22 16 0
34 3 38 8 12 12 30 8 52 -12 26 -22 27 -29 6 -52 -14 -16 -14 -18 6 -29 23
-12 55 -6 46 9 -3 5 1 11 9 15 8 3 15 12 15 21 0 24 51 20 57 -5 3 -11 12 -20
19 -20 8 0 14 -4 14 -10 0 -5 -5 -10 -11 -10 -5 0 -7 -5 -4 -11 4 -6 14 -8 22
-5 12 5 14 1 10 -14 -6 -23 12 -39 23 -20 5 9 19 11 39 7 25 -5 33 -3 38 11 3
9 13 25 21 35 8 9 12 20 9 24 -4 3 2 13 14 21 34 24 47 -1 15 -31 -29 -27 -32
-37 -12 -37 8 0 16 -5 18 -12 6 -17 68 10 68 29 0 10 6 12 23 8 33 -11 45 -25
19 -25 -28 0 -29 -30 -2 -50 11 -8 20 -20 20 -27 0 -17 11 -16 38 3 27 19 42
11 42 -22 0 -13 5 -24 11 -24 5 0 7 -5 3 -11 -4 -7 0 -9 14 -5 11 4 23 2 27
-3 3 -6 19 -8 35 -5 25 5 32 2 49 -27 12 -19 21 -36 21 -39 -1 -19 -23 -32
-53 -32 -34 0 -49 -13 -52 -43 0 -5 -4 -16 -8 -22 -11 -17 0 -33 17 -27 14 6
26 -15 22 -37 -9 -43 -15 -47 -96 -47 -75 0 -81 -2 -104 -29 -13 -15 -22 -30
-19 -33 2 -3 12 4 21 15 17 20 72 31 72 14 0 -5 -4 -9 -9 -9 -5 0 -4 -11 2
-24 9 -19 15 -22 29 -15 13 7 18 6 16 -3 -2 -7 6 -14 18 -16 14 -2 24 5 32 22
7 16 24 29 44 34 25 6 32 13 30 29 -3 24 26 39 42 23 8 -8 6 -14 -6 -21 -18
-10 -25 -39 -9 -39 4 0 13 -27 18 -59 9 -57 8 -60 -14 -70 -32 -15 -36 -14
-29 5 7 19 -12 47 -25 38 -5 -3 -7 -10 -4 -15 4 -5 2 -9 -2 -9 -5 0 -9 -16
-10 -36 -1 -31 2 -35 18 -31 19 5 25 -3 12 -17 -12 -11 -12 -90 -1 -104 6 -7
8 -15 5 -18 -3 -4 -1 -12 6 -19 9 -9 14 -9 25 2 7 7 29 13 47 13 27 0 34 4 37
22 2 17 13 25 43 32 22 5 43 13 46 19 10 15 39 0 39 -19 0 -12 -7 -15 -24 -12
-22 4 -23 3 -15 -19 4 -12 5 -23 0 -23 -5 0 -11 -18 -15 -40 l-6 -40 -55 0
c-49 0 -57 -3 -65 -24 -11 -29 5 -97 26 -109 14 -8 20 -57 6 -57 -18 0 -27
-46 -17 -88 9 -41 11 -43 45 -41 82 4 91 1 84 -28 -8 -34 -25 -53 -31 -35 -3
6 -15 12 -28 12 -14 0 -33 10 -44 22 -18 18 -24 20 -46 10 -14 -6 -24 -8 -22
-4 2 8 -7 12 -32 12 -33 0 -18 -34 17 -41 18 -4 32 -3 32 2 0 5 11 9 23 9 26
0 47 -34 47 -74 0 -19 4 -22 25 -19 13 3 30 11 36 19 6 8 27 14 45 14 19 0 34
4 34 8 0 5 15 8 32 7 28 -1 33 -5 35 -29 3 -36 -22 -65 -30 -36 -6 24 -37 27
-37 4 0 -8 7 -22 15 -30 13 -14 12 -19 -13 -50 -17 -22 -32 -32 -42 -28 -38
16 -48 15 -52 -3 -2 -10 8 -29 24 -45 36 -34 35 -48 -3 -48 -20 0 -28 -4 -23
-12 4 -7 3 -8 -5 -4 -6 4 -9 16 -6 26 4 13 -6 27 -34 49 -46 37 -49 37 -53 9
-2 -17 -9 -22 -26 -21 -12 2 -22 -2 -22 -7 0 -6 -10 -10 -22 -10 -23 -1 -23
-1 -3 -15 34 -25 85 -79 85 -90 0 -13 -39 -49 -62 -58 -11 -4 -21 0 -27 11 -5
9 -13 14 -17 10 -4 -4 -23 6 -42 23 -27 24 -37 28 -43 17 -5 -7 -2 -22 7 -36
8 -12 14 -28 12 -35 -4 -18 47 -67 70 -67 19 0 28 -6 60 -44 14 -18 16 -30 2
-21 -5 3 -16 -8 -25 -25 -8 -16 -12 -30 -8 -30 9 0 -19 -20 -28 -20 -4 0 -10
10 -15 23 -6 17 -8 12 -11 -26 -4 -42 -7 -47 -23 -42 -34 11 -90 -5 -90 -25 0
-27 30 -55 41 -39 4 8 11 10 16 6 13 -14 -21 -28 -56 -23 -19 3 -45 16 -59 28
l-25 23 7 -25 c4 -14 10 -35 13 -47 3 -13 12 -23 20 -23 8 0 12 -4 8 -9 -8
-14 -95 -8 -95 7 0 22 -18 12 -32 -18 -13 -29 -38 -49 -38 -29 0 17 -48 -21
-55 -44 -4 -12 -7 -25 -6 -30 1 -4 -4 -7 -11 -7 -9 0 -9 -3 0 -12 19 -19 -5
-51 -33 -44 -17 4 -31 -2 -54 -26 -33 -34 -37 -43 -20 -53 13 -8 -21 -34 -52
-40 -15 -3 -19 0 -15 10 3 9 0 15 -8 15 -15 0 -30 -43 -17 -48 18 -6 46 -32
32 -30 -8 2 -22 -12 -31 -31 -14 -28 -18 -31 -24 -16 -4 11 -2 22 5 26 16 9 4
39 -16 39 -8 0 -15 5 -15 10 0 6 -11 16 -25 22 -21 9 -28 8 -45 -7 -11 -10
-20 -25 -21 -34 0 -14 -1 -14 -6 -1 -3 8 -11 21 -17 29 -6 7 -11 21 -11 30 0
13 -9 15 -45 13 -24 -2 -46 -5 -48 -7 -2 -2 4 -15 13 -29 10 -15 13 -26 7 -26
-6 0 -16 10 -23 21 -9 17 -17 20 -45 16 -29 -5 -34 -3 -34 14 0 16 -6 20 -27
18 -45 -3 -73 0 -73 10 0 5 11 9 25 9 31 0 31 -1 38 40 l7 33 -48 -3 c-47 -3
-50 -7 -37 -40 5 -13 2 -18 -9 -18 -9 0 -16 6 -16 13 -1 6 -14 27 -30 46 -26
30 -32 33 -64 27 -20 -4 -36 -11 -36 -16 0 -6 -7 -10 -16 -10 -11 0 -15 6 -11
19 4 16 -2 20 -42 23 -54 5 -68 1 -46 -16 14 -10 14 -13 1 -31 -10 -13 -18
-16 -23 -9 -9 12 -75 46 -80 40 -5 -5 31 -66 40 -66 4 0 7 -11 7 -24 0 -14 5
-28 10 -31 6 -3 9 -21 9 -38 -1 -24 -3 -26 -6 -10 -5 26 -25 30 -43 8 -22 -27
-43 -18 -38 15 3 20 -1 35 -13 46 -9 8 -15 23 -12 33 2 9 -3 23 -11 30 -9 8
-16 21 -16 30 0 19 48 44 64 34 6 -4 3 4 -6 19 -13 20 -14 28 -5 38 9 10 9 11
-2 5 -11 -6 -13 -4 -8 8 10 26 -29 21 -47 -5 -9 -12 -16 -18 -16 -13 0 6 -11
11 -25 11 -15 1 -25 -3 -25 -12 0 -16 -16 -19 -24 -5 -3 5 -27 19 -53 31 -47
22 -47 22 -61 2 -12 -19 -16 -19 -65 -6 -28 7 -53 12 -55 9 -2 -2 1 -12 7 -23
24 -45 9 -50 -125 -46 -110 3 -128 1 -158 -17 -29 -17 -44 -34 -51 -59 -8 -31
-18 -50 -26 -50 -5 0 -9 -4 -9 -10 0 -5 6 -10 14 -10 8 0 20 -17 26 -37 18
-55 27 -60 52 -33 15 15 21 34 19 52 -5 47 33 72 125 82 l60 7 72 -51 c40 -28
72 -55 72 -60 0 -6 11 -20 25 -32 24 -21 34 -58 16 -58 -5 0 -8 -11 -8 -25 0
-14 -4 -29 -7 -33 -4 -3 -39 -8 -77 -10 -48 -3 -72 -9 -76 -18 -3 -8 -20 -14
-40 -14 -23 0 -33 -4 -30 -12 2 -7 10 -13 18 -13 8 0 18 -6 22 -12 4 -7 17
-13 27 -13 10 0 22 -5 26 -11 8 -14 173 -4 221 13 40 15 61 1 44 -29 -6 -10
-11 -12 -11 -6 0 21 -50 -28 -50 -49 0 -11 -11 -23 -26 -29 -15 -5 -40 -21
-56 -34 -33 -28 -56 -32 -64 -11 -6 15 -80 31 -125 27 -14 -1 -32 5 -39 14 -9
11 -22 14 -40 10 -19 -4 -31 0 -46 16 -10 11 -31 27 -46 35 -32 17 -38 39 -8
31 23 -6 26 11 8 36 -11 14 -19 15 -45 8 -24 -7 -35 -6 -44 5 -6 8 -18 14 -25
14 -10 0 -13 7 -8 25 7 27 -25 72 -34 47 -6 -18 -19 -15 -25 7 -3 12 1 22 9
25 37 14 -3 70 -43 60 -15 -4 -19 0 -18 18 0 27 33 63 67 74 23 7 22 8 -9 21
-22 9 -31 18 -27 28 4 8 12 15 19 15 14 0 25 23 30 63 1 12 6 30 10 39 12 30
-12 58 -53 59 l-37 1 33 14 c17 8 32 20 32 28 0 26 24 24 48 -3 13 -14 21 -21
18 -15 -6 13 20 29 54 33 6 0 10 8 10 16 0 17 -25 21 -35 5 -13 -22 -35 3 -35
41 0 21 -4 39 -10 39 -5 0 -10 9 -10 20 0 43 -36 13 -42 -35 -2 -25 -8 -31
-38 -36 -19 -3 -42 -9 -51 -13 -11 -5 -18 -1 -21 12 -4 14 -12 17 -40 14 -27
-3 -39 1 -49 16 -11 15 -23 19 -54 16 -57 -6 -85 3 -85 26 0 22 -35 28 -43 8
-3 -7 -6 -2 -6 11 -1 23 -2 23 -20 7 -14 -13 -28 -16 -55 -11 -29 6 -36 12
-36 31 0 13 -4 24 -8 24 -4 0 -12 13 -18 28 -8 21 -20 31 -44 36 -18 3 -30 9
-27 12 3 4 0 16 -8 28 -8 11 -15 30 -16 41 0 11 -3 14 -6 8 -2 -7 -13 -13 -23
-13 -10 0 -22 -5 -25 -10 -11 -18 -35 -10 -35 12 0 12 -3 18 -7 15 -3 -4 -17
0 -31 9 -22 15 -26 15 -40 0 -15 -15 -14 -16 6 -16 18 0 20 -3 13 -22 -4 -13
-6 -29 -4 -35 3 -7 -2 -13 -11 -13 -9 0 -23 -11 -31 -24 -9 -13 -25 -26 -35
-29 -24 -6 -27 -27 -5 -27 13 0 14 -4 4 -22 -11 -21 -12 -21 -40 13 -35 42
-39 97 -9 124 12 10 18 25 16 32 -3 7 -1 13 4 13 6 0 10 9 10 20 0 11 5 20 10
20 6 0 10 5 10 12 0 6 7 20 17 30 15 17 15 18 -13 16 -16 -1 -34 -6 -41 -11
-18 -13 -53 2 -53 23 0 10 -10 20 -24 24 -26 6 -36 30 -36 94 0 31 4 42 15 42
8 0 15 -7 15 -15 0 -13 4 -14 23 -3 12 7 25 11 28 10 15 -3 17 39 3 45 -8 3
-13 12 -10 19 7 17 -1 18 -19 2 -45 -40 -45 -40 -56 -11 -12 32 -13 53 -4 153
3 41 8 104 10 140 10 189 17 245 31 253 11 6 13 17 9 38 -4 16 -3 29 2 29 5 0
14 42 20 94 6 51 18 107 27 123 10 20 12 33 5 40 -7 7 -2 25 15 56 14 25 26
55 26 67 0 11 7 32 16 46 9 13 14 27 10 31 -3 3 -6 1 -6 -5 0 -7 -5 -12 -11
-12 -6 0 -29 -15 -51 -34 -40 -35 -78 -52 -78 -35 0 5 -4 9 -10 9 -13 0 -50
37 -50 49 0 5 6 12 13 14 7 3 5 6 -5 6 -22 1 -24 21 -3 21 8 0 15 7 15 15 0
23 -37 18 -43 -6 -5 -17 -11 -20 -30 -15 -16 4 -29 0 -37 -9 -10 -12 -10 -15
3 -15 10 0 14 -6 11 -15 -4 -9 0 -15 10 -15 9 0 16 -8 16 -18 0 -10 7 -27 15
-38 24 -32 19 -73 -11 -84 -14 -6 -40 -27 -57 -47 -18 -21 -58 -65 -89 -99
-32 -33 -58 -64 -58 -69 0 -8 -42 -103 -59 -135 -5 -9 -12 -31 -16 -50 -4 -19
-13 -42 -19 -50 -7 -8 -19 -42 -26 -75 -8 -33 -14 -62 -15 -65 -1 -3 -5 -18
-10 -35 -4 -16 -13 -36 -18 -43 -13 -16 -17 -311 -5 -328 20 -27 16 -107 -9
-224 -8 -39 -9 -230 0 -230 4 0 7 -9 7 -19 0 -11 5 -32 12 -48 6 -15 10 -33 9
-40 -1 -6 3 -14 9 -18 5 -3 10 -23 10 -44 0 -21 3 -41 7 -45 5 -4 13 -38 20
-74 11 -64 32 -177 51 -272 5 -25 7 -74 5 -110 -2 -36 -5 -99 -7 -140 -2 -41
-7 -83 -11 -92 -4 -9 -4 -22 0 -28 3 -5 3 -16 -2 -22 -14 -23 -12 -38 13 -84
13 -25 24 -52 24 -60 0 -14 21 -13 69 2 26 8 266 61 356 78 11 2 34 10 50 16
17 7 37 14 45 15 8 2 51 19 95 39 67 30 106 54 190 119 6 4 29 21 52 37 40 28
42 32 32 57 -6 15 -16 31 -22 36 -8 5 -5 7 8 5 11 -2 25 -14 32 -28 7 -14 25
-32 40 -40 50 -28 113 -73 113 -81 0 -4 27 -24 60 -45 33 -20 60 -41 60 -45 0
-5 7 -9 15 -9 9 0 27 -11 41 -25 14 -14 39 -31 57 -39 18 -7 50 -29 72 -49 22
-20 49 -40 60 -43 11 -4 38 -19 60 -34 22 -15 65 -33 95 -40 30 -7 74 -22 97
-32 24 -10 48 -16 53 -13 6 3 10 2 10 -3 0 -19 243 -56 325 -50 57 4 692 -1
799 -6 48 -3 137 -1 197 4 96 8 112 12 136 34 15 14 43 29 61 32 17 4 35 10
38 15 3 5 12 9 20 9 22 0 121 47 158 74 17 13 47 31 66 40 49 23 102 57 131
84 13 13 43 37 66 53 23 16 48 37 55 47 7 9 32 30 55 45 22 16 52 43 65 60 36
49 66 77 81 77 16 0 52 47 52 69 0 8 8 15 19 17 10 1 25 12 33 24 9 12 29 34
44 48 16 14 29 31 29 38 0 26 23 64 39 64 16 1 51 63 51 92 0 9 6 21 14 27 8
6 19 25 26 41 7 17 18 30 25 30 16 0 23 28 16 57 -5 18 -9 19 -22 10 -8 -7
-18 -19 -21 -28 -5 -13 -57 -33 -65 -25 -1 1 7 20 18 43 14 30 28 42 49 46 22
5 30 13 35 37 4 17 4 34 1 37 -10 10 -54 -7 -85 -32 -27 -23 -31 -24 -39 -9
-13 23 8 74 29 74 13 0 16 8 15 38 -2 20 1 42 6 48 5 7 -2 15 -17 22 -14 6
-25 18 -25 25 0 7 -11 24 -24 36 -23 22 -24 22 -29 2 -3 -12 1 -22 9 -25 8 -3
14 -20 14 -41 0 -34 -14 -48 -23 -22 -3 9 -9 8 -23 -4 -26 -23 -56 -30 -74
-19 -13 8 -13 11 -1 19 11 7 11 15 2 41 -14 42 -14 40 8 40 10 0 24 7 31 15 7
8 21 15 30 15 20 0 55 39 65 72 4 11 0 26 -9 37 -9 10 -13 20 -10 24 11 10
-17 67 -33 67 -8 0 -20 -13 -26 -30 l-13 -30 -35 19 c-35 19 -50 48 -30 61 17
10 2 40 -20 40 -10 0 -19 6 -19 14 0 8 -6 17 -12 19 -10 4 -9 8 2 16 13 9 13
14 2 31 -14 23 -7 64 9 55 16 -10 22 25 9 50 -7 13 -10 31 -7 39 3 8 2 18 -3
21 -16 10 -12 35 5 35 17 0 20 26 4 36 -8 5 -7 9 1 14 10 6 8 15 -9 36 -13 16
-19 35 -16 46 5 12 1 18 -10 18 -9 0 -14 4 -10 9 3 5 0 13 -6 16 -6 4 -10 31
-8 64 1 31 -1 64 -6 74 -9 22 0 86 15 101 28 28 58 -31 64 -124 5 -82 17 -117
42 -129 21 -9 44 -46 44 -70 0 -5 -13 -11 -30 -14 -16 -4 -30 -11 -30 -16 0
-6 6 -8 14 -5 8 3 26 -10 42 -30 31 -37 77 -56 89 -36 4 7 -2 22 -13 34 -47
47 -57 62 -56 76 1 8 2 22 3 31 0 9 12 20 25 23 17 4 25 15 29 38 7 43 -21 70
-63 62 -27 -6 -29 -4 -36 30 -5 30 -3 40 12 51 11 8 25 15 32 15 16 0 16 20
-1 20 -8 0 -19 10 -26 23 -11 21 -11 20 -6 -7 l6 -30 -40 41 c-23 22 -41 45
-41 50 0 5 -11 24 -25 43 -36 48 -32 109 4 75 53 -49 91 -75 110 -75 12 0 20
4 16 10 -8 13 22 80 42 95 10 7 24 10 33 7 13 -5 13 -3 1 11 -12 15 -9 17 31
17 24 0 50 6 57 13 11 9 13 9 7 0 -8 -15 3 -17 23 -4 16 10 8 73 -15 108 -9
14 -10 24 -4 28 11 7 9 50 -3 61 -14 14 -7 22 14 17 15 -4 27 0 35 12 20 27
18 32 -20 50 -44 21 -52 43 -27 67 24 21 32 23 29 6 -2 -7 6 -13 17 -13 21 0
45 -37 45 -70 0 -14 10 -25 30 -32 20 -7 30 -18 30 -31 0 -12 7 -27 15 -36 8
-8 17 -27 19 -43 2 -15 14 -48 26 -73 13 -24 24 -65 25 -90 1 -25 10 -70 19
-100 10 -30 19 -84 22 -119 2 -35 8 -69 13 -75 5 -6 8 -60 7 -119 -2 -76 1
-111 10 -118 10 -8 10 -17 -2 -45 -8 -18 -16 -60 -19 -91 -2 -32 -8 -81 -13
-110 -5 -29 -5 -58 -1 -65 4 -7 3 -18 -2 -25 -6 -7 -8 -16 -5 -21 3 -5 -1 -30
-9 -57 -17 -53 -11 -92 13 -100 20 -6 62 -65 62 -86 0 -27 69 -112 160 -195
49 -46 94 -84 99 -84 5 0 32 -16 61 -36 29 -20 70 -39 90 -41 l38 -5 -8 43
c-5 24 -4 51 0 59 5 9 6 45 3 80 -2 36 -5 90 -6 120 -1 30 -6 61 -11 69 -5 8
-4 16 5 22 10 6 11 9 2 9 -7 0 -13 9 -13 21 0 11 5 17 10 14 6 -4 10 18 11 57
0 35 2 105 4 156 1 51 -2 95 -6 98 -14 8 -10 24 6 24 19 0 19 1 -1 50 -13 33
-14 46 -5 66 14 32 14 34 -4 34 -8 0 -17 11 -21 25 -7 30 3 46 16 25 22 -36
29 12 29 195 0 105 0 206 0 225 6 372 5 517 -2 527 -5 7 -6 21 -2 30 5 10 9
44 10 76 2 49 -1 63 -20 83 -12 13 -26 24 -31 24 -5 0 -31 23 -59 51 -27 27
-69 59 -92 71 -51 26 -53 37 -14 121 15 35 34 88 41 118 7 30 16 59 20 64 4 6
11 29 15 52 3 23 13 47 21 54 16 13 19 39 4 39 -5 0 -10 8 -10 18 0 9 -4 23
-9 31 -8 12 -12 12 -26 -3 -13 -13 -15 -20 -6 -29 6 -6 11 -15 11 -20 0 -9
-91 1 -103 13 -10 9 46 44 86 54 43 10 33 31 -17 33 -36 1 -45 -2 -49 -18 -3
-13 -11 -17 -21 -13 -11 4 -14 13 -11 25 4 13 1 19 -9 19 -27 0 -46 -12 -46
-30 0 -11 -4 -22 -10 -25 -5 -3 -10 -1 -10 4 0 6 -5 11 -11 11 -5 0 -9 -10 -7
-22 2 -17 -3 -24 -19 -26 -17 -3 -23 2 -23 15 0 11 4 23 9 29 12 12 17 96 7
112 -13 21 -26 3 -26 -36 0 -20 -7 -50 -15 -66 -8 -15 -15 -34 -15 -40 0 -21
-36 -83 -73 -127 -21 -23 -37 -47 -37 -52 0 -11 -51 -77 -97 -127 -18 -19 -33
-40 -33 -46 0 -17 -62 -69 -111 -92 -25 -12 -56 -31 -69 -42 -33 -28 -47 -25
-60 15 -6 19 -16 35 -20 35 -5 0 -35 27 -67 60 -31 33 -63 60 -70 60 -7 0 -13
4 -13 9 0 5 -9 11 -20 14 -13 3 -18 10 -14 21 3 9 1 16 -5 16 -7 0 -11 25 -11
70 0 60 3 71 21 80 11 7 31 9 44 6 13 -3 27 -2 30 4 3 5 15 10 27 10 21 0 74
33 95 60 7 8 11 24 8 34 -2 11 1 26 7 33 7 9 7 13 -1 13 -6 0 -11 -4 -11 -10
0 -5 -5 -10 -11 -10 -6 0 -17 -7 -25 -15 -11 -11 -12 -15 -3 -15 18 0 2 -13
-19 -15 -56 -6 -162 -50 -162 -67 0 -4 -7 -5 -15 -2 -8 4 -15 15 -15 25 0 10
-5 19 -11 19 -7 0 -9 11 -6 29 4 20 1 34 -13 47 -11 11 -31 30 -44 43 -29 29
-31 76 -4 105 10 11 18 25 18 30 0 6 16 28 35 50 19 21 35 43 35 48 0 10 7 27
53 128 14 31 29 69 32 85 4 17 13 40 21 52 7 12 14 37 15 55 1 30 13 81 26
118 15 40 20 327 6 341 -7 7 -8 19 0 38 6 17 7 36 2 47 -14 29 -12 78 2 92 13
13 14 12 17 -18 2 -28 41 -22 69 10 15 16 34 30 42 30 20 0 20 -63 0 -94 -10
-14 -15 -40 -13 -67 2 -29 -1 -43 -9 -42 -9 2 -63 -57 -63 -69 0 -2 16 -2 35
0 27 3 35 1 35 -12 0 -9 5 -16 10 -16 6 0 10 -7 10 -15 0 -25 -25 -17 -36 11
-8 23 -10 24 -29 10 -17 -13 -18 -18 -7 -35 6 -12 12 -28 12 -36 0 -8 14 -29
30 -47 26 -27 28 -33 16 -47 -26 -31 -48 -89 -41 -112 4 -12 2 -24 -4 -28 -6
-4 -11 -30 -12 -59 -1 -30 -6 -49 -12 -45 -5 3 -8 0 -5 -8 8 -26 56 -22 101 8
59 41 70 43 95 23 18 -15 19 -20 8 -29 -8 -7 -12 -21 -9 -31 4 -14 0 -20 -11
-20 -10 0 -16 7 -14 16 2 10 -3 18 -10 20 -7 1 -8 0 -3 -2 6 -4 7 -14 0 -30
-12 -34 -12 -34 11 -34 11 0 29 9 41 21 11 11 24 18 27 14 4 -4 -6 -17 -21
-29 -22 -18 -27 -28 -22 -47 7 -28 -18 -84 -37 -84 -7 0 -18 -18 -24 -40 -6
-22 -14 -48 -18 -58 -5 -10 -3 -23 5 -33 11 -13 10 -17 -4 -25 -14 -8 -15 -13
-4 -30 10 -17 9 -22 -5 -30 -10 -6 -18 -16 -18 -24 0 -8 -8 -19 -17 -24 -17
-10 -17 -10 0 -11 9 0 17 -7 17 -15 0 -11 7 -14 25 -9 28 7 31 -2 14 -40 -13
-27 -42 -46 -32 -20 3 7 0 14 -7 14 -6 0 -10 -10 -8 -22 2 -16 9 -22 23 -21
11 1 24 -4 28 -10 6 -8 7 -6 3 6 -4 12 2 20 19 27 14 5 25 15 25 21 0 6 7 8
17 5 30 -12 110 15 122 41 11 25 51 32 51 9 0 -17 32 -16 43 2 4 6 15 12 22
12 8 0 15 7 15 15 0 8 7 15 15 15 8 0 15 5 15 10 0 6 9 10 21 10 18 0 20 4 15
25 -7 29 9 66 27 62 7 -1 11 6 9 17 -2 12 1 15 8 11 7 -4 10 -19 6 -36 -4 -21
-2 -29 9 -29 20 0 36 33 25 50 -5 8 -5 19 -1 25 10 11 13 32 33 185 20 146 15
258 -15 350 -14 41 -30 100 -37 130 -12 55 -34 112 -71 181 -10 20 -19 42 -19
48 0 6 -12 30 -27 54 -42 65 -51 80 -68 112 -19 37 -37 66 -50 80 -6 6 -24 39
-40 72 -17 34 -37 63 -47 66 -10 3 -20 24 -28 60 -6 31 -18 61 -26 68 -9 7
-29 40 -45 74 -17 34 -46 78 -65 99 -19 20 -34 42 -34 47 0 5 -10 20 -23 32
-12 12 -42 46 -66 75 l-43 53 -132 -2 c-73 -2 -137 0 -142 2 -5 2 -36 2 -69
-1z m-1552 -1451 c-6 -6 -19 -9 -29 -6 -17 3 -16 5 6 14 28 12 39 8 23 -8z
m137 -79 c0 -5 -5 -10 -11 -10 -5 0 -7 5 -4 10 3 6 8 10 11 10 2 0 4 -4 4 -10z
m944 -56 c11 -28 7 -36 -16 -28 -31 9 -32 10 -17 28 18 20 25 20 33 0z m1106
-124 c0 -5 -4 -10 -10 -10 -5 0 -10 5 -10 10 0 6 5 10 10 10 6 0 10 -4 10 -10z
m-46 -99 c-10 -11 -21 -18 -26 -15 -5 3 1 14 13 25 28 24 36 18 13 -10z m-12
-59 c-14 -4 -16 -32 -2 -32 6 0 10 -9 10 -21 0 -33 -24 -17 -31 22 -8 34 5 54
25 42 6 -4 5 -8 -2 -11z m-3002 -62 c0 -5 -5 -10 -11 -10 -5 0 -7 5 -4 10 3 6
8 10 11 10 2 0 4 -4 4 -10z m3500 -144 c0 -3 -4 -8 -10 -11 -5 -3 -10 -1 -10
4 0 6 5 11 10 11 6 0 10 -2 10 -4z m-2670 -380 c0 -16 -18 -31 -27 -22 -8 8 5
36 17 36 5 0 10 -6 10 -14z m-1510 -87 c0 -5 -11 -4 -24 2 -15 7 -22 17 -19
26 5 11 9 11 24 -3 11 -9 19 -21 19 -25z m2344 32 c3 -5 -3 -11 -15 -14 -16
-4 -18 -3 -8 9 13 16 16 17 23 5z m1046 -31 c0 -5 -4 -10 -10 -10 -5 0 -10 5
-10 10 0 6 5 10 10 10 6 0 10 -4 10 -10z m-420 -15 c0 -8 -4 -15 -9 -15 -5 0
-11 7 -15 15 -3 9 0 15 9 15 8 0 15 -7 15 -15z m-2903 -1 c-3 -3 -12 -4 -19
-1 -8 3 -5 6 6 6 11 1 17 -2 13 -5z m2594 -4 c11 6 19 7 19 1 0 -12 -29 -23
-41 -15 -5 3 -9 11 -8 17 0 9 2 9 6 0 3 -9 10 -10 24 -3z m149 -10 c0 -5 -4
-10 -10 -10 -5 0 -10 5 -10 10 0 6 5 10 10 10 6 0 10 -4 10 -10z m-1620 -45
c0 -18 -4 -23 -15 -19 -8 4 -15 15 -15 25 0 10 7 19 15 19 9 0 15 -9 15 -25z
m930 5 c-20 -13 -33 -13 -25 0 3 6 14 10 23 10 15 0 15 -2 2 -10z m1370 -1 c0
-6 -6 -9 -14 -6 -7 3 -18 1 -24 -5 -6 -6 -15 -7 -21 -4 -22 14 -10 26 24 26
19 0 35 -5 35 -11z m-757 -15 c6 -6 -16 -34 -26 -34 -3 0 -3 9 0 20 5 20 15
25 26 14z m82 -13 c3 -5 1 -12 -5 -16 -5 -3 -10 1 -10 9 0 18 6 21 15 7z m732
-28 c-3 -3 -13 1 -21 10 -8 8 -12 17 -9 20 3 3 12 -1 20 -9 9 -8 13 -18 10
-21z m-687 -3 c0 -5 -4 -10 -10 -10 -5 0 -10 5 -10 10 0 6 5 10 10 10 6 0 10
-4 10 -10z m112 -8 c9 -9 7 -13 -8 -19 -10 -4 -27 -16 -36 -28 -12 -15 -19
-17 -28 -9 -18 18 15 75 40 71 11 -2 25 -8 32 -15z m-1862 -32 c0 -5 -5 -10
-11 -10 -5 0 -7 5 -4 10 3 6 8 10 11 10 2 0 4 -4 4 -10z m767 4 c-3 -3 -12 -4
-19 -1 -8 3 -5 6 6 6 11 1 17 -2 13 -5z m1153 -54 c0 -5 -4 -10 -10 -10 -5 0
-10 5 -10 10 0 6 5 10 10 10 6 0 10 -4 10 -10z m-1930 -20 c0 -5 -4 -10 -10
-10 -5 0 -21 -12 -35 -27 l-26 -28 17 38 c11 23 25 37 36 37 10 0 18 -4 18
-10z m2556 -5 c10 -8 16 -15 12 -15 -4 0 -3 -11 2 -25 8 -21 6 -26 -14 -31
-13 -3 -35 -4 -47 -2 -34 4 -38 50 -7 72 28 20 29 20 54 1z m-616 -22 c0 -13
-3 -13 -15 -3 -8 7 -12 16 -9 21 8 13 24 1 24 -18z m165 -103 c8 -13 -5 -13
-25 0 -13 8 -13 10 2 10 9 0 20 -4 23 -10z m-58 -142 c8 -14 8 -16 -2 -90 -5
-36 -10 -46 -23 -43 -10 1 -16 9 -14 20 2 9 -4 22 -13 29 -15 11 -15 13 -1 25
9 8 16 26 16 42 0 30 22 40 37 17z m-277 -98 c-19 -13 -30 -13 -30 0 0 6 10
10 23 10 18 0 19 -2 7 -10z m360 -44 c0 -8 -4 -18 -10 -21 -5 -3 -10 3 -10 14
0 12 5 21 10 21 6 0 10 -6 10 -14z m319 -2 c5 4 13 1 17 -5 6 -11 -17 -30 -41
-35 -5 -1 -17 -5 -26 -8 -9 -4 -21 0 -28 8 -11 13 -9 17 13 26 14 5 26 15 26
21 0 8 4 8 15 -1 8 -6 19 -9 24 -6z m-41 -116 c16 -16 15 -28 -3 -28 -8 0 -15
2 -15 4 0 2 -3 11 -6 20 -7 19 7 21 24 4z m587 -149 c10 -14 1 -21 -19 -13 -9
3 -13 10 -10 15 7 12 21 11 29 -2z m75 -119 c0 -5 -4 -10 -10 -10 -5 0 -10 5
-10 10 0 6 5 10 10 10 6 0 10 -4 10 -10z m-1012 -26 c-2 -9 -13 -23 -25 -32
-22 -14 -23 -13 -23 11 0 23 10 31 43 36 5 0 7 -6 5 -15z m1112 -39 c39 -20
38 -25 -5 -18 -28 4 -35 2 -35 -11 0 -9 -4 -16 -10 -16 -13 0 -13 16 0 41 13
23 13 23 50 4z m-1076 -81 c10 -26 7 -44 -8 -44 -14 0 -29 37 -20 52 8 13 21
9 28 -8z m27 -83 c5 -22 3 -31 -7 -31 -7 0 -16 5 -19 10 -3 6 -22 10 -41 10
-33 0 -37 7 -25 47 1 2 20 1 43 -1 39 -3 43 -7 49 -35z m122 33 c4 -4 -3 -24
-14 -44 l-21 -37 -34 16 c-19 8 -34 18 -34 21 0 6 71 47 86 49 6 1 14 -2 17
-5z m-201 -176 c-7 -7 -12 -8 -12 -2 0 14 12 26 19 19 2 -3 -1 -11 -7 -17z
m1234 -154 c-4 -9 -9 -15 -11 -12 -3 3 -3 13 1 22 4 9 9 15 11 12 3 -3 3 -13
-1 -22z m-1101 -74 c0 -22 -29 -18 -33 3 -3 14 1 18 15 15 10 -2 18 -10 18
-18z m1122 -12 c-3 -7 -5 -2 -5 12 0 14 2 19 5 13 2 -7 2 -19 0 -25z m-4622
-105 c11 -26 11 -34 0 -50 -13 -17 -14 -17 -15 0 0 9 -6 17 -14 17 -8 0 -15
13 -18 34 -3 27 0 33 15 32 11 -1 24 -14 32 -33z m3459 1 c3 -8 -4 -19 -16
-25 -18 -10 -20 -9 -15 5 4 10 1 16 -8 16 -15 0 -20 12 -9 22 9 9 42 -3 48
-18z m-4 -94 c0 -5 -4 -10 -10 -10 -5 0 -10 5 -10 10 0 6 5 10 10 10 6 0 10
-4 10 -10z m-3250 -30 c0 -11 5 -20 11 -20 5 0 7 -4 4 -10 -3 -5 -1 -10 4 -10
6 0 11 -9 11 -19 0 -18 -45 -39 -58 -26 -3 3 0 5 8 5 10 0 10 3 0 15 -10 12
-10 18 0 30 6 8 9 23 5 35 -4 11 -2 20 4 20 6 0 11 -9 11 -20z m3085 -102
c-12 -7 -21 -6 -28 2 -9 10 -9 11 0 6 6 -3 14 -2 18 4 4 6 11 7 17 4 7 -4 4
-10 -7 -16z m-3205 -108 c0 -11 4 -20 9 -20 4 0 6 -11 3 -25 -2 -14 -11 -25
-19 -25 -8 0 -12 4 -8 9 3 6 -1 13 -9 18 -8 4 -18 20 -21 36 -6 24 -5 27 19
27 19 0 26 -5 26 -20z m3635 -31 c4 -5 4 -21 1 -35 -8 -30 -42 -32 -51 -4 -11
35 33 68 50 39z m-3002 -94 c-8 -22 17 -50 29 -33 7 10 12 9 23 -6 15 -20 12
-36 -8 -36 -13 0 -77 57 -77 69 0 12 23 31 31 25 5 -2 6 -11 2 -19z m2657 11
c0 -3 -4 -8 -10 -11 -5 -3 -10 -1 -10 4 0 6 5 11 10 11 6 0 10 -2 10 -4z m436
-45 c-21 -23 -20 -39 1 -43 13 -2 10 -9 -15 -35 -18 -17 -32 -39 -32 -47 0
-23 -12 -19 -33 9 -14 19 -15 25 -4 25 8 0 22 9 33 21 18 20 18 21 -1 35 -17
13 -18 16 -5 24 8 4 26 18 40 30 28 24 41 9 16 -19z m-2960 -18 c7 -10 13 -27
14 -38 0 -15 -2 -17 -9 -6 -6 9 -11 10 -15 2 -4 -6 -14 -11 -22 -11 -9 0 -23
-7 -32 -16 -13 -13 -17 -14 -21 -3 -2 7 1 15 8 17 6 2 11 12 11 23 0 10 6 19
14 19 8 0 16 7 20 15 7 20 16 19 32 -2z m-254 -15 c-7 -7 -12 -8 -12 -2 0 6 3
14 7 17 3 4 9 5 12 2 2 -3 -1 -11 -7 -17z m3028 -52 c0 -17 -28 -41 -37 -32
-10 9 16 58 27 51 6 -3 10 -12 10 -19z m-2140 3 c0 -19 -21 -49 -34 -49 -22 0
-60 36 -52 48 9 15 86 16 86 1z m-1272 -17 c7 -5 10 -16 7 -24 -4 -10 1 -17
14 -21 12 -3 21 -13 21 -25 0 -10 9 -27 20 -37 15 -14 17 -22 9 -36 -5 -11 -7
-24 -3 -30 10 -17 -28 6 -47 28 -8 10 -21 37 -29 60 -7 23 -19 44 -26 47 -21
8 -17 46 4 46 9 0 23 -4 30 -8z m1407 -32 c3 -5 1 -10 -4 -10 -6 0 -11 5 -11
10 0 6 2 10 4 10 3 0 8 -4 11 -10z m-1497 -36 c2 -19 -3 -36 -12 -44 -9 -7
-16 -20 -16 -29 0 -9 -12 -27 -25 -40 -14 -13 -32 -38 -41 -56 -8 -18 -29 -46
-45 -63 -17 -18 -28 -36 -24 -43 4 -6 -3 -21 -17 -33 -14 -11 -29 -32 -33 -45
-4 -14 -18 -36 -31 -50 -13 -14 -24 -30 -24 -36 0 -6 -23 -35 -51 -65 -28 -30
-58 -65 -66 -77 -16 -25 -63 -32 -63 -10 0 7 43 57 95 111 52 54 95 105 95
113 0 8 11 24 25 35 14 11 35 41 46 66 12 26 32 63 45 82 13 19 24 42 24 51 0
24 37 104 55 119 8 7 15 21 15 32 0 14 6 19 23 16 16 -2 23 -11 25 -34z m651
-14 c6 0 11 -4 11 -10 0 -5 7 -10 15 -10 17 0 20 -16 5 -25 -6 -3 -13 0 -16 8
-3 8 -18 17 -34 20 -16 4 -31 15 -35 26 -3 12 -9 20 -13 20 -4 -1 -18 0 -32 1
l-25 2 25 7 c19 6 33 2 57 -16 17 -12 36 -23 42 -23z m760 10 c18 -17 38 -30
42 -30 12 0 11 -31 0 -49 -6 -9 -18 -11 -35 -7 -21 5 -26 12 -26 36 0 16 -6
33 -13 37 -19 11 -29 43 -14 43 7 0 27 -14 46 -30z m515 -46 c3 -9 6 -27 6
-40 0 -14 7 -38 15 -54 15 -28 11 -60 -6 -60 -5 0 -14 11 -19 25 -6 15 -17 25
-29 25 -11 0 -23 5 -26 10 -4 6 -10 8 -15 5 -4 -3 -23 2 -41 10 -19 8 -27 14
-19 15 9 0 36 18 60 40 48 43 65 49 74 24z m706 -21 l0 -27 -20 22 c-11 12
-20 24 -20 27 0 3 9 5 20 5 15 0 20 -7 20 -27z m-860 -55 c0 -18 -2 -20 -9 -8
-6 8 -7 18 -5 22 9 14 14 9 14 -14z m860 8 c0 -3 -4 -8 -10 -11 -5 -3 -10 -1
-10 4 0 6 5 11 10 11 6 0 10 -2 10 -4z m-432 -34 c12 -31 22 -37 41 -25 13 8
22 9 26 3 11 -18 39 -11 61 15 14 16 27 23 38 19 20 -8 21 -30 1 -42 -16 -8
-11 -42 6 -42 4 0 6 -6 3 -14 -3 -8 3 -16 15 -19 13 -3 21 -13 21 -26 0 -19 2
-20 20 -9 15 10 22 10 32 0 9 -9 8 -12 -7 -13 -31 -3 -48 -1 -74 7 -15 4 -22
3 -18 -3 4 -5 -6 -8 -24 -5 -21 3 -29 10 -29 26 -1 11 -15 37 -32 56 -17 19
-27 29 -24 22 11 -19 -14 -67 -46 -85 -15 -9 -28 -24 -28 -34 0 -12 -3 -14
-11 -6 -15 15 -7 48 11 48 9 0 16 11 18 28 3 27 -19 39 -33 17 -5 -8 -11 -7
-21 1 -16 14 -44 5 -44 -14 0 -14 -44 -57 -59 -57 -5 0 -11 -10 -14 -21 -5
-20 -7 -21 -23 -5 -9 10 -23 15 -30 12 -7 -3 -16 -1 -19 4 -4 6 -14 10 -25 10
-20 0 -35 26 -20 35 6 3 18 8 27 10 51 12 119 40 126 52 4 7 17 13 28 13 11 0
22 8 26 18 12 34 26 43 52 37 14 -4 27 -10 29 -13z m-1940 -56 c22 -37 20 -46
-6 -39 -19 4 -45 51 -36 64 10 16 22 9 42 -25z m1292 7 c0 -28 -16 -47 -34
-40 -9 4 -16 18 -16 32 0 20 5 25 25 25 17 0 25 -5 25 -17z m-1210 -104 c0
-11 -4 -17 -10 -14 -5 3 -10 13 -10 21 0 8 5 14 10 14 6 0 10 -9 10 -21z
m1803 6 c4 -8 2 -17 -3 -20 -6 -4 -10 3 -10 14 0 25 6 27 13 6z m35 -66 c-2
-6 -8 -10 -13 -10 -5 0 -11 4 -13 10 -2 6 4 11 13 11 9 0 15 -5 13 -11z m64
-65 c-23 -18 -42 -17 -42 0 0 10 10 14 30 14 27 -1 28 -2 12 -14z m22 -63 c22
-24 17 -54 -8 -59 -23 -5 -32 5 -41 46 -6 27 -4 32 13 32 10 0 27 -9 36 -19z
m-2774 -165 c0 -2 -7 -6 -15 -10 -8 -3 -15 -1 -15 4 0 6 7 10 15 10 8 0 15 -2
15 -4z"/>
<path d="M4386 2301 c-4 -7 -5 -15 -2 -18 9 -9 19 4 14 18 -4 11 -6 11 -12 0z"/>
<path d="M4775 2200 c3 -5 11 -10 16 -10 6 0 7 5 4 10 -3 6 -11 10 -16 10 -6
0 -7 -4 -4 -10z"/>
<path d="M1979 7121 c-61 -19 -155 -96 -185 -153 -31 -60 -9 -63 63 -9 92 69
191 75 262 15 85 -71 20 -214 -121 -266 -58 -21 -148 -87 -148 -109 0 -5 36
-9 80 -9 166 0 270 -77 270 -200 0 -101 -75 -190 -160 -190 -76 0 -133 54
-146 138 -5 32 -13 46 -30 54 -43 20 -103 -13 -110 -59 -6 -35 16 -89 48 -120
36 -35 122 -63 191 -63 95 0 207 55 270 131 47 58 59 91 58 167 0 73 -18 116
-68 166 -31 30 -122 76 -153 76 -22 0 -8 18 31 39 100 57 149 126 149 211 0
80 -43 141 -124 174 -40 17 -132 20 -177 7z"/>
<path d="M2823 7108 c-11 -13 -87 -113 -168 -223 -82 -110 -179 -241 -217
-291 -68 -91 -79 -116 -55 -131 6 -4 91 -8 187 -10 96 -1 180 -5 188 -8 10 -4
12 -23 7 -87 -5 -78 -8 -85 -39 -114 -21 -20 -49 -34 -75 -39 -43 -7 -62 -22
-42 -34 20 -13 434 -7 438 6 2 6 -11 14 -29 18 -61 13 -109 44 -124 80 -18 45
-19 164 -1 171 16 6 74 12 135 13 l42 1 0 45 0 45 -89 0 c-61 0 -92 4 -98 13
-4 6 -6 137 -5 290 3 264 2 277 -16 277 -10 0 -28 -10 -39 -22z m-62 -250 c4
-152 3 -288 -4 -294 -6 -6 -192 -9 -255 -5 -16 1 -3 27 47 93 20 25 69 92 110
147 41 56 80 101 88 101 8 0 13 -14 14 -42z"/>
<path d="M3732 7038 c-50 -17 -92 -70 -92 -119 0 -52 28 -88 101 -134 32 -20
68 -49 79 -65 42 -58 0 -120 -81 -120 -23 0 -42 10 -71 40 -22 22 -42 40 -44
40 -2 0 -4 -16 -4 -35 0 -28 5 -37 30 -50 53 -28 111 -30 166 -6 58 25 84 61
84 118 0 51 -18 75 -101 129 -80 53 -99 76 -99 121 0 26 6 36 30 48 16 8 38
15 48 15 28 0 69 -35 76 -65 9 -37 26 -21 26 26 0 34 -4 41 -27 50 -43 17 -85
19 -121 7z"/>
<path d="M4139 7034 c-7 -9 -23 -46 -35 -82 -12 -37 -43 -121 -68 -187 -36
-97 -52 -126 -82 -152 l-37 -33 82 0 c52 0 80 4 76 10 -3 6 -13 10 -20 10 -28
0 -37 37 -20 86 29 85 28 84 105 83 l68 -1 21 -51 c27 -64 26 -94 -1 -118 -23
-18 -22 -18 72 -18 l95 0 -31 27 c-16 15 -35 38 -42 52 -21 47 -62 153 -62
163 0 5 -6 23 -14 40 -8 18 -27 67 -43 109 -29 79 -40 90 -64 62z m32 -150
c26 -73 25 -74 -29 -74 -27 0 -51 2 -54 6 -5 4 25 94 39 117 11 17 27 -1 44
-49z"/>
<path d="M3066 7031 c-3 -5 5 -12 19 -15 13 -3 29 -15 35 -26 6 -11 12 -84 13
-162 2 -114 6 -150 20 -176 63 -116 296 -102 336 21 6 18 13 92 15 165 3 100
8 139 20 157 9 14 21 25 26 25 6 0 10 5 10 10 0 6 -35 10 -85 10 -50 0 -85 -4
-85 -10 0 -5 6 -10 14 -10 8 0 28 -11 43 -24 28 -24 28 -25 30 -160 2 -120 0
-139 -17 -169 -25 -41 -57 -57 -117 -57 -58 0 -110 31 -130 78 -17 41 -28 243
-15 287 6 21 17 31 40 37 18 5 32 13 32 18 0 13 -197 13 -204 1z"/>
<path d="M4901 6851 c3 -36 5 -40 23 -35 20 6 20 6 -1 -12 -19 -15 -23 -30
-25 -79 -1 -33 -4 -64 -7 -70 -2 -5 -5 -27 -6 -50 -1 -41 -28 -124 -52 -160
-7 -11 -13 -25 -13 -33 0 -7 -8 -24 -17 -39 -10 -14 -18 -32 -19 -40 -3 -21
-33 -63 -44 -63 -6 0 -10 -7 -10 -16 0 -9 -20 -40 -45 -68 -25 -29 -45 -60
-45 -68 0 -8 -5 -19 -11 -25 -6 -6 -12 -23 -13 -37 -2 -15 -12 -37 -24 -49
-11 -12 -23 -31 -26 -42 -9 -29 -38 -61 -61 -67 -11 -3 -27 -9 -36 -12 -12 -5
-18 -1 -22 15 -4 13 -9 21 -12 17 -7 -7 16 -58 26 -58 5 0 6 -8 3 -17 -2 -10
1 -8 7 5 7 12 19 22 28 20 9 -1 21 1 28 5 6 4 22 -5 36 -23 14 -16 30 -30 36
-30 16 0 13 -32 -5 -59 -21 -30 -4 -44 43 -36 18 3 43 0 55 -6 21 -11 111 -6
298 17 14 1 35 3 48 3 12 1 35 13 51 29 23 22 27 33 24 60 -4 24 -2 32 10 32
22 0 39 24 26 37 -11 11 17 83 33 83 4 0 8 14 8 30 0 20 5 30 15 30 8 0 14 4
12 9 -1 5 7 16 17 24 11 8 20 23 21 33 4 36 50 115 79 136 5 3 11 14 12 22 1
9 20 37 42 64 21 26 41 56 44 67 3 11 9 29 14 39 5 13 4 17 -4 12 -18 -11 -52
12 -52 36 0 13 -21 40 -56 72 -31 27 -67 66 -79 86 -23 37 -112 96 -190 126
-25 9 -45 21 -45 25 0 5 -7 9 -15 9 -9 0 -36 21 -61 46 l-45 47 2 -42z"/>
<path d="M4097 6090 c-6 -23 3 -26 21 -8 16 16 15 28 -2 28 -7 0 -16 -9 -19
-20z"/>
<path d="M5490 6098 c1 -19 29 -53 37 -45 8 8 -17 57 -29 57 -4 0 -8 -6 -8
-12z"/>
<path d="M4028 6093 c7 -3 16 -2 19 1 4 3 -2 6 -13 5 -11 0 -14 -3 -6 -6z"/>
<path d="M4273 6003 c-7 -3 -13 -8 -13 -13 0 -10 24 -7 28 4 5 11 -1 14 -15 9z"/>
<path d="M4310 5999 c0 -5 5 -7 10 -4 6 3 10 8 10 11 0 2 -4 4 -10 4 -5 0 -10
-5 -10 -11z"/>
<path d="M4440 5979 c0 -5 5 -7 10 -4 6 3 10 8 10 11 0 2 -4 4 -10 4 -5 0 -10
-5 -10 -11z"/>
<path d="M6095 5860 c-3 -6 1 -7 9 -4 18 7 21 14 7 14 -6 0 -13 -4 -16 -10z"/>
<path d="M4517 5713 c-4 -3 -7 -11 -7 -17 0 -6 5 -5 12 2 6 6 9 14 7 17 -3 3
-9 2 -12 -2z"/>
<path d="M6210 5646 c0 -8 -9 -18 -20 -21 -11 -3 -20 -11 -20 -16 0 -6 14 -1
30 11 17 12 28 26 25 31 -9 13 -15 11 -15 -5z"/>
<path d="M6556 5364 c-15 -10 -17 -17 -9 -25 8 -8 14 -5 23 11 15 28 10 32
-14 14z"/>
<path d="M4565 5270 c-3 -5 1 -10 9 -10 9 0 16 5 16 10 0 6 -4 10 -9 10 -6 0
-13 -4 -16 -10z"/>
<path d="M4613 5255 c-12 -8 -23 -25 -25 -38 -2 -14 -11 -23 -25 -25 -13 -2
-23 -8 -23 -13 0 -5 -8 -9 -17 -9 -13 0 -14 -3 -5 -12 7 -7 12 -20 12 -30 0
-26 29 -22 56 8 26 27 30 40 14 46 -13 4 0 49 14 46 12 -2 76 29 76 37 0 11
-57 4 -77 -10z"/>
<path d="M4825 5240 c-3 -5 1 -10 9 -10 9 0 16 5 16 10 0 6 -4 10 -9 10 -6 0
-13 -4 -16 -10z"/>
<path d="M4487 5233 c-4 -3 -7 -11 -7 -17 0 -6 5 -5 12 2 6 6 9 14 7 17 -3 3
-9 2 -12 -2z"/>
<path d="M4190 5030 c0 -5 4 -10 9 -10 6 0 13 5 16 10 3 6 -1 10 -9 10 -9 0
-16 -4 -16 -10z"/>
<path d="M4030 4659 c0 -5 5 -7 10 -4 6 3 10 8 10 11 0 2 -4 4 -10 4 -5 0 -10
-5 -10 -11z"/>
<path d="M4499 4647 c6 -8 8 -17 4 -20 -3 -4 3 -7 14 -7 28 0 35 10 18 26 -19
19 -52 19 -36 1z"/>
<path d="M4623 4654 c3 -4 -1 -14 -10 -22 -11 -11 -12 -17 -4 -20 10 -3 51 33
51 45 0 1 -10 3 -22 3 -12 0 -19 -3 -15 -6z"/>
<path d="M4113 4635 c-14 -16 -17 -29 -5 -22 4 3 12 -1 18 -7 9 -9 6 -18 -11
-34 -14 -14 -21 -30 -18 -41 4 -16 10 -18 35 -10 49 14 90 59 54 59 -23 0 -27
29 -6 42 11 7 20 16 20 20 0 14 -75 8 -87 -7z"/>
<path d="M4416 4641 c-3 -5 0 -11 8 -14 15 -6 26 1 26 15 0 11 -27 10 -34 -1z"/>
<path d="M5146 4606 c3 -8 12 -12 20 -9 17 6 9 23 -11 23 -8 0 -12 -6 -9 -14z"/>
<path d="M4500 4600 c0 -5 7 -10 15 -10 8 0 15 5 15 10 0 6 -7 10 -15 10 -8 0
-15 -4 -15 -10z"/>
<path d="M5353 4575 c-6 -14 -7 -27 -2 -31 7 -4 29 34 29 52 0 13 -17 0 -27
-21z"/>
<path d="M5115 4570 c3 -5 13 -10 21 -10 8 0 14 5 14 10 0 6 -9 10 -21 10 -11
0 -17 -4 -14 -10z"/>
<path d="M4811 4537 c9 -7 14 -18 12 -24 -3 -7 3 -13 12 -13 12 0 15 5 11 17
-4 9 -1 20 6 25 8 5 0 8 -22 8 -30 -1 -33 -3 -19 -13z"/>
<path d="M5480 4535 c0 -8 5 -15 10 -15 6 0 10 7 10 15 0 8 -4 15 -10 15 -5 0
-10 -7 -10 -15z"/>
<path d="M5368 4533 c-20 -5 -25 -23 -7 -23 6 0 8 -7 5 -16 -4 -12 -2 -15 9
-10 11 4 15 -1 15 -20 0 -32 17 -64 33 -64 7 0 24 14 39 30 23 27 25 33 15 60
-11 29 -39 40 -52 20 -3 -5 -13 -10 -21 -10 -11 0 -13 6 -9 20 6 20 4 21 -27
13z"/>
<path d="M4200 4515 c7 -9 15 -13 17 -11 7 7 -7 26 -19 26 -6 0 -6 -6 2 -15z"/>
<path d="M5220 4515 c0 -8 5 -15 10 -15 6 0 10 7 10 15 0 8 -4 15 -10 15 -5 0
-10 -7 -10 -15z"/>
<path d="M2040 4480 c12 -22 18 -24 40 -10 13 9 13 11 0 20 -8 5 -23 10 -33
10 -15 0 -16 -3 -7 -20z"/>
<path d="M5482 4419 c2 -7 10 -15 17 -17 8 -3 12 1 9 9 -2 7 -10 15 -17 17 -8
3 -12 -1 -9 -9z"/>
<path d="M5226 4398 c4 -6 -1 -8 -15 -3 -22 7 -30 -9 -10 -21 8 -4 7 -9 -2
-15 -26 -16 -2 -19 30 -3 34 17 39 45 8 50 -9 1 -14 -2 -11 -8z"/>
<path d="M5400 4320 c0 -5 5 -10 10 -10 6 0 10 5 10 10 0 6 -4 10 -10 10 -5 0
-10 -4 -10 -10z"/>
<path d="M5375 4170 c3 -5 8 -10 11 -10 2 0 4 5 4 10 0 6 -5 10 -11 10 -5 0
-7 -4 -4 -10z"/>
<path d="M6254 4049 c-3 -6 -18 -8 -31 -4 -19 4 -31 0 -45 -15 -17 -18 -18
-24 -6 -56 7 -20 22 -40 33 -44 24 -10 46 7 26 19 -12 8 -12 11 0 23 7 8 21
13 29 11 22 -6 43 22 35 46 -7 23 -32 35 -41 20z"/>
<path d="M6393 3964 c0 -17 7 -23 30 -28 49 -10 55 10 9 32 l-39 19 0 -23z"/>
<path d="M5437 3964 c-10 -10 15 -54 31 -54 9 0 12 6 8 16 -3 9 -6 22 -6 30 0
14 -21 19 -33 8z"/>
<path d="M5404 3922 c2 -4 -10 -14 -27 -22 -30 -13 -30 -14 -9 -23 17 -8 25
-5 41 14 25 29 26 39 5 39 -8 0 -13 -4 -10 -8z"/>
<path d="M5550 3920 c0 -5 5 -10 11 -10 5 0 7 5 4 10 -3 6 -8 10 -11 10 -2 0
-4 -4 -4 -10z"/>
<path d="M5237 3875 c3 -8 9 -12 14 -9 12 7 11 11 -5 17 -10 4 -13 1 -9 -8z"/>
<path d="M5278 3853 c0 -21 -1 -44 -1 -50 1 -7 -3 -10 -8 -7 -5 3 -9 -2 -9
-10 0 -10 9 -16 25 -16 16 0 25 -6 25 -15 0 -8 -4 -15 -10 -15 -5 0 -10 5 -10
12 0 8 -3 9 -11 1 -5 -5 -10 -29 -11 -52 0 -24 -6 -45 -14 -49 -12 -7 -12 -11
0 -28 12 -17 24 -20 68 -17 41 2 56 -1 66 -14 6 -9 12 -12 12 -7 0 6 -7 19
-15 30 -8 10 -15 35 -15 54 0 23 -6 39 -19 47 -21 13 -18 61 5 70 8 3 14 16
14 29 0 21 -3 23 -19 14 -30 -16 -44 -12 -38 10 3 11 1 18 -4 14 -5 -3 -9 2
-9 10 0 8 -4 18 -10 21 -6 4 -11 -9 -12 -32z"/>
<path d="M6334 3874 c-23 -16 -22 -57 1 -48 7 3 29 -2 50 -10 44 -19 55 -20
55 -5 0 6 -9 13 -20 16 -11 3 -20 11 -20 18 0 14 -27 45 -38 44 -4 0 -17 -7
-28 -15z"/>
<path d="M5548 3851 c-18 -15 -35 -19 -61 -16 -23 3 -39 0 -48 -11 -29 -35 26
-36 94 -2 12 6 23 5 32 -2 8 -7 19 -9 24 -6 5 4 12 2 16 -4 12 -20 22 -9 21
23 -1 27 -5 32 -27 35 -14 2 -36 -6 -51 -17z"/>
<path d="M6322 3768 c3 -7 13 -15 22 -16 12 -3 17 1 14 10 -3 7 -13 15 -22 16
-12 3 -17 -1 -14 -10z"/>
<path d="M5164 3705 c-4 -8 -11 -12 -18 -9 -6 4 1 -6 15 -21 32 -33 47 -27 41
15 -4 32 -28 41 -38 15z"/>
<path d="M6245 3707 c-4 -10 -5 -21 -1 -24 10 -10 18 4 13 24 -4 17 -4 17 -12
0z"/>
<path d="M6301 3620 c-3 -7 -9 -30 -17 -61 -7 -32 21 -48 45 -24 14 13 13 16
-1 27 -9 7 -19 24 -21 38 -2 14 -5 23 -6 20z"/>
<path d="M5496 3574 c-4 -11 0 -15 16 -12 12 2 23 9 26 16 6 18 -35 15 -42 -4z"/>
<path d="M5123 3484 c-15 -7 -5 -34 12 -34 7 0 15 9 18 20 5 20 -5 24 -30 14z"/>
<path d="M6210 3470 c0 -5 5 -10 11 -10 5 0 7 5 4 10 -3 6 -8 10 -11 10 -2 0
-4 -4 -4 -10z"/>
<path d="M5520 3450 c0 -5 4 -10 9 -10 6 0 13 5 16 10 3 6 -1 10 -9 10 -9 0
-16 -4 -16 -10z"/>
<path d="M5005 3370 c3 -5 8 -10 11 -10 2 0 4 5 4 10 0 6 -5 10 -11 10 -5 0
-7 -4 -4 -10z"/>
<path d="M5597 3364 c-4 -4 -7 -14 -7 -23 0 -11 3 -12 11 -4 6 6 10 16 7 23
-2 6 -7 8 -11 4z"/>
<path d="M5535 3348 c-4 -10 -15 -18 -25 -18 -25 0 -36 -20 -19 -31 9 -6 18
-3 26 8 10 13 15 13 27 4 20 -17 27 0 11 29 -12 22 -14 23 -20 8z"/>
<path d="M4933 3326 c5 -16 27 -19 27 -3 0 7 -7 14 -15 14 -9 0 -14 -5 -12
-11z"/>
<path d="M6068 3308 c3 -13 12 -28 20 -34 10 -7 13 -19 9 -37 -7 -24 -4 -25
43 -32 28 -4 72 -4 100 0 48 7 49 7 35 29 -8 13 -12 26 -9 29 11 11 -15 35
-34 32 -59 -12 -93 -12 -105 -2 -14 13 -54 37 -61 37 -2 0 -2 -10 2 -22z"/>
<path d="M2352 3248 c5 -15 28 -18 29 -3 0 6 -7 12 -17 13 -10 3 -15 -1 -12
-10z"/>
<path d="M2377 3174 c3 -7 9 -14 14 -14 14 0 10 17 -5 23 -10 4 -13 1 -9 -9z"/>
<path d="M5185 3180 c-4 -6 -10 -8 -15 -5 -4 3 -12 -1 -18 -8 -12 -14 -4 -67
9 -67 5 0 9 -9 9 -19 0 -23 15 -35 35 -27 17 6 8 46 -11 46 -19 0 -18 26 1 34
8 3 15 17 15 31 0 25 -14 33 -25 15z"/>
<path d="M2552 3154 c-23 -16 -26 -35 -7 -36 6 0 16 -4 22 -10 20 -16 40 -2
45 31 4 26 1 31 -17 31 -11 0 -31 -7 -43 -16z"/>
<path d="M2705 3161 c-7 -12 2 -31 15 -31 9 0 8 26 -2 35 -3 4 -9 2 -13 -4z"/>
<path d="M5312 3154 c3 -17 21 -21 26 -6 1 5 -4 12 -13 16 -11 4 -15 1 -13
-10z"/>
<path d="M4955 3140 c3 -5 8 -10 11 -10 2 0 4 5 4 10 0 6 -5 10 -11 10 -5 0
-7 -4 -4 -10z"/>
<path d="M6150 3140 c0 -5 5 -10 10 -10 6 0 10 5 10 10 0 6 -4 10 -10 10 -5 0
-10 -4 -10 -10z"/>
<path d="M5030 3130 c0 -5 -9 -10 -20 -10 -11 0 -20 -4 -20 -8 0 -5 -9 -18
-20 -30 -14 -15 -16 -22 -7 -22 7 0 17 4 23 9 5 5 18 11 28 13 12 2 20 13 22
31 1 15 1 27 -2 27 -2 0 -4 -4 -4 -10z"/>
<path d="M5422 3128 c-15 -15 -16 -45 -2 -53 13 -8 34 45 22 57 -4 4 -13 3
-20 -4z"/>
<path d="M4497 3073 c-12 -11 -8 -23 8 -23 8 0 15 7 15 15 0 16 -12 20 -23 8z"/>
<path d="M2630 3050 c0 -5 5 -10 11 -10 5 0 7 5 4 10 -3 6 -8 10 -11 10 -2 0
-4 -4 -4 -10z"/>
<path d="M6235 3046 c-15 -11 -17 -18 -9 -26 17 -17 49 -8 49 14 0 25 -16 30
-40 12z"/>
<path d="M5027 3036 c-24 -19 -4 -31 23 -14 11 7 20 16 20 20 0 12 -23 9 -43
-6z"/>
<path d="M5120 3040 c0 -5 5 -10 10 -10 6 0 10 5 10 10 0 6 -4 10 -10 10 -5 0
-10 -4 -10 -10z"/>
<path d="M5150 3040 c0 -5 5 -10 11 -10 5 0 7 5 4 10 -3 6 -8 10 -11 10 -2 0
-4 -4 -4 -10z"/>
<path d="M4370 3030 c0 -6 7 -13 15 -17 24 -9 27 1 5 15 -13 8 -20 8 -20 2z"/>
<path d="M5381 3012 c-8 -16 -7 -21 5 -26 18 -7 31 21 16 36 -7 7 -13 4 -21
-10z"/>
<path d="M4964 2998 c-4 -5 1 -17 10 -26 15 -15 18 -15 26 -2 5 8 10 18 10 21
0 12 -40 17 -46 7z"/>
<path d="M2820 2980 c0 -5 5 -10 11 -10 5 0 7 5 4 10 -3 6 -8 10 -11 10 -2 0
-4 -4 -4 -10z"/>
<path d="M6240 2980 c0 -5 5 -10 10 -10 6 0 10 5 10 10 0 6 -4 10 -10 10 -5 0
-10 -4 -10 -10z"/>
<path d="M2930 2975 c0 -3 7 -16 15 -29 11 -17 26 -23 55 -24 36 -2 40 0 40
23 0 25 -20 37 -20 13 -1 -8 -6 -6 -14 5 -12 15 -76 25 -76 12z"/>
<path d="M5280 2970 c0 -5 5 -10 10 -10 6 0 10 5 10 10 0 6 -4 10 -10 10 -5 0
-10 -4 -10 -10z"/>
<path d="M5078 2963 c-16 -2 -28 -9 -28 -15 0 -5 6 -8 14 -5 7 3 21 -4 32 -16
l18 -22 6 25 c7 26 4 41 -8 39 -4 -1 -19 -4 -34 -6z"/>
<path d="M4858 2947 c-16 -6 -28 -15 -28 -20 0 -4 5 -5 10 -2 11 7 31 -35 23
-47 -7 -13 17 -48 32 -48 10 0 15 10 15 30 0 17 -4 30 -9 30 -5 0 -11 13 -13
30 -3 21 0 30 11 33 13 4 13 5 1 5 -8 0 -27 -5 -42 -11z"/>
<path d="M3173 2937 c-2 -4 10 -20 27 -35 20 -19 29 -34 24 -45 -3 -10 -1 -17
5 -17 6 0 11 5 11 11 0 6 14 27 30 46 17 18 30 38 30 43 0 11 -120 9 -127 -3z"/>
<path d="M3402 2930 c-18 -29 -15 -48 4 -22 8 12 14 27 12 32 -2 6 -9 1 -16
-10z"/>
<path d="M5381 2923 c-1 -18 -7 -23 -27 -23 -14 0 -23 -4 -19 -10 3 -5 26 -10
51 -10 38 0 44 3 44 21 0 16 -5 20 -19 16 -13 -3 -21 1 -24 12 -3 11 -5 9 -6
-6z"/>
<path d="M5492 2927 c-9 -11 -6 -19 14 -38 25 -24 26 -24 40 -5 18 25 18 46 0
46 -8 0 -21 2 -29 5 -7 3 -19 0 -25 -8z"/>
<path d="M4240 2910 c0 -5 -6 -10 -14 -10 -9 0 -14 -9 -13 -20 1 -15 8 -20 29
-20 18 0 28 5 28 14 0 8 3 21 6 30 4 12 0 16 -15 16 -12 0 -21 -4 -21 -10z"/>
<path d="M3073 2896 c21 -16 15 -61 -11 -75 -8 -5 -12 -13 -8 -20 9 -13 43
-15 50 -2 3 5 14 7 25 4 12 -3 20 2 24 16 3 12 1 19 -3 16 -5 -3 -11 -1 -15 5
-3 5 -1 10 5 10 6 0 -5 14 -23 30 -19 17 -41 30 -48 30 -10 -1 -9 -5 4 -14z"/>
<path d="M5230 2899 c0 -5 5 -7 10 -4 6 3 10 8 10 11 0 2 -4 4 -10 4 -5 0 -10
-5 -10 -11z"/>
<path d="M4388 2894 c-7 -6 3 -54 11 -54 4 0 13 6 19 12 16 16 32 -5 25 -33
-3 -10 -1 -19 5 -19 5 0 12 -14 16 -31 3 -19 11 -29 18 -26 7 2 11 11 9 18 -3
8 -4 31 -3 51 1 29 -2 36 -13 32 -9 -4 -15 0 -15 10 0 9 7 16 16 16 31 0 4 16
-32 18 -20 2 -40 5 -44 7 -4 3 -9 2 -12 -1z"/>
<path d="M3527 2856 c-4 -11 -10 -16 -13 -13 -6 6 -21 -4 -54 -37 -22 -22 -11
-37 21 -29 20 6 62 69 56 86 -2 6 -7 3 -10 -7z"/>
<path d="M4335 2850 c3 -5 12 -7 20 -3 21 7 19 13 -6 13 -11 0 -18 -4 -14 -10z"/>
<path d="M5335 2840 c-3 -5 -1 -10 4 -10 6 0 11 5 11 10 0 6 -2 10 -4 10 -3 0
-8 -4 -11 -10z"/>
<path d="M4361 2823 c1 -10 5 -29 9 -43 8 -24 8 -23 9 8 1 17 1 35 2 39 0 4
-4 9 -10 11 -6 2 -11 -5 -10 -15z"/>
<path d="M3736 2811 c-4 -5 -2 -12 3 -15 5 -4 12 -2 15 3 4 5 2 12 -3 15 -5 4
-12 2 -15 -3z"/>
<path d="M3370 2800 c0 -5 5 -10 10 -10 6 0 10 5 10 10 0 6 -4 10 -10 10 -5 0
-10 -4 -10 -10z"/>
<path d="M3570 2799 c0 -5 5 -7 10 -4 6 3 10 8 10 11 0 2 -4 4 -10 4 -5 0 -10
-5 -10 -11z"/>
<path d="M3935 2800 c-3 -5 1 -10 10 -10 9 0 13 5 10 10 -3 6 -8 10 -10 10 -2
0 -7 -4 -10 -10z"/>
<path d="M4734 2788 c-4 -6 -2 -14 4 -16 7 -2 10 -7 8 -11 -8 -12 11 -34 23
-27 17 11 13 53 -5 60 -21 8 -22 8 -30 -6z"/>
<path d="M4918 2793 c6 -2 18 -2 25 0 6 3 1 5 -13 5 -14 0 -19 -2 -12 -5z"/>
<path d="M6284 2775 c-8 -20 4 -35 26 -35 20 0 44 32 33 44 -12 12 -54 6 -59
-9z"/>
<path d="M3762 2748 c-8 -31 -11 -33 -47 -31 -53 2 -70 -12 -44 -38 16 -16 22
-17 42 -7 12 7 25 17 28 21 3 5 10 8 15 8 5 -1 9 2 9 7 0 4 4 13 8 20 5 6 5
17 2 22 -3 6 1 10 9 10 9 0 16 5 16 10 0 25 -30 7 -38 -22z"/>
<path d="M3854 2764 c3 -9 6 -18 6 -20 0 -13 19 -1 23 16 4 15 0 20 -15 20
-14 0 -18 -5 -14 -16z"/>
<path d="M4282 2748 c-7 -7 -12 -22 -12 -34 0 -20 2 -21 29 -11 26 9 28 13 18
34 -12 26 -18 28 -35 11z"/>
<path d="M4390 2750 c0 -5 5 -10 10 -10 6 0 10 5 10 10 0 6 -4 10 -10 10 -5 0
-10 -4 -10 -10z"/>
<path d="M4796 2713 c-22 -6 -53 -33 -38 -33 6 0 8 -17 5 -39 -5 -35 -3 -39
22 -45 27 -7 51 3 28 11 -18 7 -16 28 6 65 11 17 18 35 15 40 -5 8 -8 9 -38 1z"/>
<path d="M4266 2672 c-3 -5 1 -15 8 -21 11 -10 14 -9 12 3 -3 21 -13 29 -20
18z"/>
<path d="M5166 2663 c-11 -11 -6 -23 9 -23 8 0 15 4 15 9 0 13 -16 22 -24 14z"/>
<path d="M4941 2631 c-15 -28 -14 -31 14 -31 28 0 33 21 11 39 -12 10 -17 8
-25 -8z"/>
<path d="M4594 2576 c-8 -22 -2 -27 16 -16 12 7 12 12 3 21 -10 10 -14 9 -19
-5z"/>
<path d="M4960 2581 c0 -15 33 -22 44 -10 8 9 7 10 -6 6 -10 -4 -18 -2 -18 3
0 6 -4 10 -10 10 -5 0 -10 -4 -10 -9z"/>
<path d="M4789 2543 c0 -5 -2 -23 -3 -40 -3 -29 -1 -32 20 -31 26 3 29 13 14
52 -9 24 -29 36 -31 19z"/>
<path d="M4687 2506 c-3 -8 0 -17 8 -19 15 -7 25 1 25 20 0 17 -26 17 -33 -1z"/>
<path d="M4847 2474 c-8 -8 1 -24 14 -24 5 0 9 7 9 15 0 15 -12 20 -23 9z"/>
<path d="M4618 2433 c7 -3 16 -2 19 1 4 3 -2 6 -13 5 -11 0 -14 -3 -6 -6z"/>
<path d="M4915 2430 c3 -5 10 -10 16 -10 5 0 9 5 9 10 0 6 -7 10 -16 10 -8 0
-12 -4 -9 -10z"/>
<path d="M4870 2380 c0 -5 5 -10 10 -10 6 0 10 5 10 10 0 6 -4 10 -10 10 -5 0
-10 -4 -10 -10z"/>
<path d="M3290 2336 c0 -9 7 -16 16 -16 9 0 14 5 12 12 -6 18 -28 21 -28 4z"/>
<path d="M3560 2245 c-15 -28 -1 -55 31 -55 10 0 21 -5 24 -10 9 -15 45 7 45
28 0 57 -74 85 -100 37z"/>
<path d="M3178 1315 c-3 -3 -34 -7 -69 -10 -79 -5 -102 -13 -95 -32 3 -8 6
-18 6 -22 0 -12 80 -5 93 8 6 6 18 11 27 11 15 0 55 38 47 46 -2 2 -6 2 -9 -1z"/>
<path d="M2980 1260 c0 -5 5 -10 10 -10 6 0 10 5 10 10 0 6 -4 10 -10 10 -5 0
-10 -4 -10 -10z"/>
<path d="M2878 1213 c-10 -2 -18 -11 -18 -19 0 -20 14 -17 35 6 18 20 16 22
-17 13z"/>
<path d="M1825 800 c-3 -5 -1 -10 4 -10 6 0 11 5 11 10 0 6 -2 10 -4 10 -3 0
-8 -4 -11 -10z"/>
</g>
</svg>
